# xmcd
#
# Track frame offsets:
#	150
#	14750
#	26999
#	44339
#	66513
#	88135
#	97991
#	113600
#	131601
#	144832
#	155925
#	172390
#
# Disc length: 2504 seconds
#
# Revision: 0
# Processed by: cddbd v1.5.2PL0 Copyright (c) Steve Scherf et al.
# Submitted via: EasyCDDAExtractor 10.2.0.1
#
DISCID=b109c60c
DTITLE=Various Artist - Gosspel Jukebox Vol. 11
DYEAR=2003
DGENRE=Gospel
TTITLE0=Frank Denton - Altar Call
TTITLE1=Morgan and Morgan - Lord When I Make It To Heaven
TTITLE2=Finley Duke - Our God Reigns
TTITLE3=Answered Prayer - Jesus Come Back
TTITLE4=Shelby Nichols - Daddy
TTITLE5=Richard Kiser - I'm Winging My Way Back Home
TTITLE6=Brad Dansby - Mercy Of The Cross
TTITLE7=Ray Kiker - I Found The Nail
TTITLE8=Southern Dogwood - He Will Hold Me In The Valley
TTITLE9=Billy Jack Davis - I Believe He Lives Within
TTITLE10=New Vison Band - Picture Of Calvary
TTITLE11=Garry Johnson - Til Faith Makes Them Fall
EXTD=
EXTT0=
EXTT1=
EXTT2=
EXTT3=
EXTT4=
EXTT5=
EXTT6=
EXTT7=
EXTT8=
EXTT9=
EXTT10=
EXTT11=
PLAYORDER=
